<mxfile host="app.diagrams.net" modified="2023-12-06T12:37:08.086Z" agent="Mozilla/5.0 (Windows NT 10.0; Win64; x64) AppleWebKit/537.36 (KHTML, like Gecko) Chrome/120.0.0.0 Safari/537.36" version="22.1.5" etag="K0obKH-73bEU9V0lB224" type="github">
  <diagram name="Page-1" id="npF7nOJxLP0afzf-HzOP">
    <mxGraphModel>
      <root>
        <mxCell id="0" />
        <mxCell id="1" parent="0" />
      </root>
    </mxGraphModel>
  </diagram>
</mxfile>
